<?xml version="1.0" standalone="no"?><!DOCTYPE svg PUBLIC "-//W3C//DTD SVG 1.1//EN" "http://www.w3.org/Graphics/SVG/1.1/DTD/svg11.dtd"><svg t="1593599418146" class="icon" viewBox="0 0 1024 1024" version="1.1" xmlns="http://www.w3.org/2000/svg" p-id="2107" xmlns:xlink="http://www.w3.org/1999/xlink" width="200" height="200"><defs><style type="text/css"></style></defs><path d="M871.210667 874.026667C775.104 970.730667 647.338667 1024 511.445333 1024c-135.914667 0-263.68-53.269333-359.765333-149.973333-198.336-199.616-198.336-524.437333 0-724.074667C247.765333 53.248 375.530667 0 511.445333 0c135.893333 0 263.658667 53.248 359.765334 149.952C967.338667 246.656 1020.266667 375.253333 1020.266667 512c0 136.768-52.928 265.322667-149.056 362.026667zM841.237333 180.117333C753.130667 91.477333 636.010667 42.666667 511.445333 42.666667c-124.586667 0-241.706667 48.810667-329.792 137.450666-181.802667 182.997333-181.802667 480.768 0 663.744C269.738667 932.501333 386.858667 981.333333 511.445333 981.333333c124.565333 0 241.685333-48.832 329.792-137.472 88.106667-88.64 136.64-206.506667 136.64-331.861333 0-125.354667-48.533333-243.221333-136.64-331.882667zM744.661333 533.333333h-211.989333v213.333334c0 11.776-9.493333 21.333333-21.205333 21.333333a21.269333 21.269333 0 0 1-21.205334-21.333333V533.333333h-211.989333a21.269333 21.269333 0 0 1-21.205333-21.333333c0-11.776 9.493333-21.333333 21.205333-21.333333h211.989333V277.333333c0-11.776 9.493333-21.333333 21.205334-21.333333 11.712 0 21.205333 9.557333 21.205333 21.333333v213.333334h211.989333c11.712 0 21.205333 9.557333 21.205334 21.333333s-9.493333 21.333333-21.205334 21.333333z" fill="#3CB371" p-id="2108"></path></svg>