<?xml version="1.0" standalone="no"?><!DOCTYPE svg PUBLIC "-//W3C//DTD SVG 1.1//EN" "http://www.w3.org/Graphics/SVG/1.1/DTD/svg11.dtd"><svg t="1593670455700" class="icon" viewBox="0 0 1024 1024" version="1.1" xmlns="http://www.w3.org/2000/svg" p-id="2129" xmlns:xlink="http://www.w3.org/1999/xlink" width="200" height="200"><defs><style type="text/css"></style></defs><path d="M555.822545 344.203636a20.689455 20.689455 0 0 0-28.76509 0.698182L261.422545 614.656c-7.400727 7.540364-7.168 19.269818 0.67491 27.275636a18.897455 18.897455 0 0 0 13.195636 5.957819 16.872727 16.872727 0 0 0 12.032-5.352728l232.727273-236.497454 1.722181 489.867636a22.411636 22.411636 0 0 0 6.609455 14.894546 19.456 19.456 0 0 0 21.457455 4.305454 20.130909 20.130909 0 0 0 12.241454-18.594909l-0.372364-490.286545 233.681455 237.288727a19.293091 19.293091 0 0 0 27.182545-0.046546 20.247273 20.247273 0 0 0-0.139636-28.183272L555.822545 344.203636zM837.12 218.344727H243.176727a22.923636 22.923636 0 0 0-22.667636 23.109818c0 12.753455 10.170182 23.109818 22.667636 23.109819H837.12a22.923636 22.923636 0 0 0 22.690909-23.109819 22.993455 22.993455 0 0 0-22.690909-23.109818z" fill="#535A72" p-id="2130"></path></svg>